<svg xmlns="http://www.w3.org/2000/svg" viewBox="0 0 1024 1024"><path d="M81 299.54v399.72h291.84c3.43 0 6.86-.41 10.19-1.23 13.52-3.35 38.3-10.42 53.71-30.45l1.54-127.55s-38.42 35.34-73.76 36.88c-56.89 2.47-155.21 0-155.21 0V420.17s152.13-3.07 169.04 1.54c14.26 3.89 47.45 1.34 67.49 47.01 6.49 14.8 9.58 30.86 9.58 47.02v295.05h119.76V471.62s-5.67-151.34-181.92-172.09H81Z"/><path d="M456.72 298.77s99.89 16.9 129.08 119.86h171.99s90.78 7.68 73.88 96.81c0 0-3.07 52.25-66.08 58.39H594.15v126.01h192.89s162.95-35.34 162.95-205.92-169.35-195.93-169.35-195.93l-323.93.77Z"/></svg>