<svg xmlns="http://www.w3.org/2000/svg" width="87" height="87" fill="none"><circle cx="43.5" cy="43.5" r="43.5" fill="#fff"/><path fill="#000" d="M12 27.002v29.81h21.766c.255 0 .511-.03.76-.091 1.008-.25 2.856-.777 4.005-2.271l.115-9.513s-2.865 2.636-5.501 2.75c-4.243.185-11.576 0-11.576 0V35.999s11.346-.229 12.607.115c1.064.29 3.54.1 5.034 3.506a8.726 8.726 0 0 1 .714 3.507V65.13h8.932V39.835s-.423-11.287-13.568-12.834H12Z"/><path fill="#000" d="M41.588 27.058s7.45 1.26 9.627 8.94h12.827s6.77.572 5.51 7.22c0 0-.23 3.896-4.929 4.354H51.837v9.398h14.386s12.153-2.636 12.153-15.358C78.376 28.891 65.746 27 65.746 27l-24.16.057.002.001Z"/></svg>