<?xml version="1.0" standalone="no"?>
<!DOCTYPE svg PUBLIC "-//W3C//DTD SVG 20010904//EN"
 "http://www.w3.org/TR/2001/REC-SVG-20010904/DTD/svg10.dtd">
<svg version="1.0" xmlns="http://www.w3.org/2000/svg"
 width="915.000000pt" height="915.000000pt" viewBox="0 0 915.000000 915.000000"
 preserveAspectRatio="xMidYMid meet">
<metadata>
Created by potrace 1.14, written by Peter Selinger 2001-2017
</metadata>
<g transform="translate(0.000000,915.000000) scale(0.100000,-0.100000)"
fill="#000000" stroke="none">
<path d="M1 6716 c2 -3 186 -187 408 -410 l403 -406 457 -1 c251 0 463 -2 471
-3 8 -2 47 -6 85 -10 56 -5 205 -36 295 -60 102 -28 279 -115 402 -199 122
-82 135 -94 254 -212 208 -208 347 -443 423 -718 115 -409 47 -897 -173 -1245
-14 -23 -26 -44 -26 -46 0 -16 -161 -216 -222 -278 -103 -103 -137 -131 -246
-205 -170 -116 -407 -215 -568 -238 -21 -3 -44 -8 -51 -10 -14 -5 -97 -14
-173 -20 -30 -2 -252 -4 -492 -4 l-436 -1 -406 -407 c-222 -224 -403 -410
-400 -412 2 -2 379 -4 836 -4 741 0 1007 5 1073 18 11 2 43 7 70 10 151 18
403 90 580 166 309 132 552 295 776 519 162 161 296 336 410 532 81 141 209
434 223 512 3 14 7 29 9 33 7 12 54 230 61 283 18 134 21 183 21 375 0 265
-16 401 -70 615 -122 477 -443 967 -841 1286 -77 61 -227 166 -289 202 -216
124 -503 238 -721 286 -237 53 -269 54 -1243 55 -498 1 -903 -1 -900 -3z"/>
<path d="M4390 6712 c0 -5 10 -18 23 -29 12 -11 191 -191 397 -399 l375 -379
885 -5 c487 -3 896 -9 909 -13 111 -31 143 -43 195 -69 93 -46 143 -85 231
-174 127 -128 195 -260 219 -424 40 -267 -36 -498 -229 -695 -137 -140 -316
-227 -493 -240 -32 -2 -612 -4 -1289 -5 l-1233 0 0 -1225 0 -1225 408 0 407 0
0 811 c0 446 3 813 6 815 4 2 402 4 885 5 949 0 973 2 1172 53 458 119 886
495 1071 939 38 93 64 176 85 277 26 122 28 147 32 335 3 175 -6 272 -36 400
-6 28 -13 57 -15 65 -6 25 -45 144 -55 165 -134 302 -281 495 -525 690 -27 22
-51 43 -53 48 -2 4 -8 7 -14 7 -5 0 -24 11 -41 24 -45 34 -209 119 -287 149
-91 36 -216 71 -291 82 -19 2 -61 9 -94 14 -74 12 -2645 15 -2645 3z"/>
</g>
</svg>
