<?xml version="1.0" standalone="no"?>
<!DOCTYPE svg PUBLIC "-//W3C//DTD SVG 20010904//EN"
 "http://www.w3.org/TR/2001/REC-SVG-20010904/DTD/svg10.dtd">
<svg version="1.0" xmlns="http://www.w3.org/2000/svg"
 width="4267.000000pt" height="4267.000000pt" viewBox="0 0 4267.000000 4267.000000"
 preserveAspectRatio="xMidYMid meet">
<metadata>
Created by potrace 1.14, written by Peter Selinger 2001-2017
</metadata>
<g transform="translate(0.000000,4267.000000) scale(0.100000,-0.100000)"
fill="#000000" stroke="none">
<path d="M31136 30253 c-1 -1 -1097 -5 -2436 -8 -1339 -3 -3456 -8 -4705 -11
-1248 -3 -2870 -7 -3603 -8 -733 -2 -1335 -6 -1339 -10 -3 -3 5 -6 18 -6 25 0
219 -47 389 -95 210 -58 642 -210 787 -276 24 -10 45 -19 48 -19 2 0 34 -13
70 -30 36 -16 67 -30 70 -30 23 0 517 -249 658 -332 26 -15 50 -28 53 -28 2 0
40 -22 84 -50 44 -27 82 -50 84 -50 12 0 444 -287 506 -336 8 -7 65 -50 125
-95 94 -71 259 -202 275 -219 3 -3 23 -20 45 -39 171 -145 518 -483 656 -641
166 -188 315 -375 446 -560 45 -63 87 -120 92 -127 6 -7 11 -15 11 -19 0 -3
15 -27 33 -53 137 -189 413 -688 534 -966 12 -27 34 -77 48 -110 14 -33 30
-69 35 -80 11 -23 85 -215 124 -320 37 -101 93 -273 131 -400 l32 -110 3609
-1 c3930 -1 3637 3 3909 -54 55 -12 111 -23 125 -26 26 -5 44 -10 240 -64 814
-228 1520 -687 1916 -1246 27 -38 52 -70 56 -72 5 -2 8 -7 8 -12 0 -4 25 -47
55 -95 174 -277 311 -655 370 -1020 31 -194 40 -313 40 -570 0 -257 -11 -413
-50 -675 -6 -42 -18 -117 -21 -135 -3 -11 -6 -33 -9 -50 -2 -16 -9 -64 -15
-105 -30 -209 -98 -445 -191 -662 -287 -671 -826 -1178 -1538 -1447 -219 -83
-523 -165 -695 -187 -21 -2 -42 -6 -45 -9 -4 -2 -36 -7 -71 -10 -36 -4 -85
-10 -108 -15 -24 -4 -1656 -8 -3625 -8 -1970 -1 -3589 -1 -3597 -1 -13 -1 -15
-299 -15 -2626 0 -2326 2 -2625 15 -2626 97 -5 8024 0 8050 5 294 63 1010 310
1365 471 17 7 75 33 130 58 171 77 225 102 370 174 193 96 334 171 545 291 38
21 356 213 435 262 19 12 268 181 369 250 99 68 448 336 561 431 272 228 699
637 897 859 312 349 572 696 853 1135 198 310 449 806 611 1206 80 198 209
564 244 694 5 17 18 64 30 105 12 41 24 82 26 90 2 8 24 94 48 190 25 96 47
186 50 200 2 14 18 90 35 170 16 80 33 161 36 180 3 19 8 42 10 50 2 8 7 33
10 55 3 23 8 52 10 65 3 14 8 43 10 65 3 22 7 51 10 65 2 14 7 45 10 70 4 25
8 57 11 71 6 42 14 109 20 169 2 30 6 66 8 80 4 23 8 57 21 200 3 25 7 83 11
130 3 47 7 105 9 130 23 310 23 1073 0 1310 -1 19 -6 76 -10 125 -3 50 -8 108
-10 130 -3 22 -7 67 -10 100 -7 77 -14 133 -25 220 -5 39 -12 90 -15 115 -4
25 -13 88 -21 140 -48 311 -84 485 -178 861 -2 8 -25 88 -50 176 -173 603
-438 1215 -759 1748 -108 180 -180 290 -341 519 -24 35 -19 27 -138 181 -105
136 -93 121 -223 275 -191 226 -480 523 -706 725 -46 41 -262 226 -286 245
-10 8 -40 32 -66 53 -26 21 -116 90 -199 153 -84 62 -157 117 -163 122 -106
86 -759 497 -865 545 -8 4 -35 19 -60 33 -65 38 -489 253 -595 301 -205 95
-482 210 -720 300 -22 9 -49 19 -60 24 -11 4 -87 31 -170 59 -82 28 -161 55
-175 60 -41 15 -276 86 -405 123 -143 41 -409 107 -555 138 -58 12 -125 26
-150 31 -37 9 -1466 19 -1474 11z"/>
<path d="M3375 21863 l0 -8328 6150 0 c3383 0 6175 3 6205 7 260 34 743 173
1085 312 228 93 494 230 653 337 40 27 75 49 78 49 2 0 10 5 17 10 7 6 59 47
117 91 137 104 314 269 420 392 47 54 88 104 92 111 7 12 11 276 23 1331 2
215 7 584 10 820 6 482 14 1137 20 1655 2 190 7 581 11 870 8 604 8 630 1 636
-4 5 -31 -14 -71 -51 -9 -8 -140 -118 -203 -170 -7 -5 -18 -15 -25 -21 -22
-17 -341 -257 -378 -283 -616 -438 -1250 -756 -1794 -901 -64 -17 -126 -33
-139 -35 -12 -3 -44 -9 -72 -15 -49 -9 -70 -13 -150 -24 -152 -21 -245 -26
-765 -41 -1209 -36 -3025 -36 -5020 0 -310 5 -831 16 -885 19 l-30 1 0 3264 0
3263 185 4 c481 8 1539 23 2115 29 575 6 2655 7 2995 1 771 -14 1234 -33 1495
-61 22 -2 67 -7 100 -11 33 -3 114 -19 180 -34 66 -16 140 -31 165 -35 25 -4
54 -9 65 -11 25 -5 94 -16 120 -19 64 -9 367 -71 465 -95 287 -72 559 -185
778 -322 86 -54 228 -155 267 -189 17 -14 57 -50 90 -79 86 -76 217 -212 292
-305 35 -44 72 -89 81 -100 39 -48 184 -269 239 -365 203 -354 381 -797 467
-1160 2 -8 9 -33 14 -55 15 -56 48 -223 68 -335 16 -94 18 -108 29 -205 15
-123 23 -207 32 -335 3 -41 6 -2892 7 -6335 l1 -6260 2495 0 2495 0 0 7100 c0
3905 -4 7138 -9 7185 -4 47 -9 92 -11 100 -2 8 -6 44 -10 80 -3 36 -8 72 -10
80 -2 8 -7 35 -10 60 -7 57 -28 174 -54 310 -24 126 -21 113 -61 280 -18 74
-33 140 -35 145 -19 80 -111 400 -145 505 -40 120 -118 345 -135 385 -7 17
-45 111 -85 210 -120 296 -321 709 -427 877 -12 21 -23 40 -23 44 0 19 -290
476 -374 590 -17 23 -38 52 -46 64 -25 36 -143 195 -170 227 -14 17 -36 46
-50 64 -14 18 -35 44 -47 58 -12 14 -46 55 -75 91 -29 35 -60 72 -68 81 -8 8
-44 49 -79 90 -81 92 -480 491 -581 580 -131 115 -212 182 -338 283 -189 150
-549 406 -572 406 -6 0 -10 3 -10 8 0 4 -9 12 -19 17 -11 6 -75 44 -143 86
-174 108 -353 208 -618 344 -400 207 -1019 444 -1575 604 -173 50 -650 166
-767 186 -15 3 -59 12 -96 19 -37 8 -83 17 -102 20 -19 3 -46 8 -60 11 -81 16
-77 15 -174 30 -21 4 -47 8 -56 10 -10 2 -40 7 -67 11 -26 3 -57 8 -68 10 -10
2 -37 6 -60 9 -22 3 -51 8 -65 10 -14 2 -52 7 -85 11 -33 3 -82 10 -110 15
-27 4 -2986 8 -6575 8 l-6525 1 0 -8327z"/>
</g>
</svg>
